<svg id="illustration" xmlns="http://www.w3.org/2000/svg" viewBox="0 0 400 400"><defs><style>.cls-1,.cls-12{fill:#2b2b2b;}.cls-1{opacity:0.1;}.cls-2{fill:#446125;}.cls-3{fill:#3f8f6f;}.cls-4{fill:#54b08b;}.cls-5{fill:#35785d;}.cls-6{fill:#b8c745;}.cls-7{fill:#e8f078;}.cls-8{fill:#5a753d;}.cls-9{fill:#709d53;}.cls-10{fill:#99c26d;}.cls-11{fill:#738d57;}.cls-13{fill:#dfbda5;}.cls-14{fill:#c3987b;}.cls-15,.cls-20{fill:#8b6651;}.cls-16{fill:#e8cab6;}.cls-17{fill:#474747;}.cls-18{fill:#4f5253;}.cls-19{fill:#6f7173;}.cls-20{stroke:#8b6651;stroke-miterlimit:10;stroke-width:4px;}.cls-21{fill:#c4c4c4;}.cls-22{fill:#dddddc;}.cls-23{fill:#9da1a2;}</style></defs><title>Protagonist (ENFJ) personality</title><polygon class="cls-1" points="328.3 385.28 301.9 380.34 195.38 362.64 95.34 380.11 68.54 388.58 239.35 400 328.3 385.28"/><polygon class="cls-2" points="278.05 348.71 273.94 237.58 267.62 199.88 209.84 176.38 135.37 217.32 108.12 362.64 133.42 384.67 279.06 385.05 301.94 380.11 278.05 348.71"/><polygon class="cls-3" points="255.91 331.8 223.37 345.05 228.19 368.98 244.94 368.98 255.91 359.47 255.91 331.8"/><polygon class="cls-4" points="255.91 359.47 276.73 380.11 256.61 384.67 227.69 380.11 228.19 368.98 255.91 359.47"/><polygon class="cls-3" points="276.73 389.33 227.69 389.33 227.69 380.11 269.05 380.11 285.3 373.99 276.73 389.33"/><polygon class="cls-5" points="255.91 331.8 226.07 357.27 223.37 345.05 239.64 331.8 255.91 331.8"/><polygon class="cls-6" points="140.38 106.72 106.64 129.95 104.45 157.56 127.53 198.58 286.31 184.41 281.42 122.77 264.59 112.57 140.38 106.72"/><polygon class="cls-7" points="264.59 112.57 140.38 106.72 106.64 129.95 104.45 157.56 123.83 144.22 267.62 132.27 281.42 122.77 264.59 112.57"/><polygon class="cls-3" points="180.52 346.63 175.41 366.98 158.65 368.98 143.62 362.64 146.18 339.07 180.52 346.63"/><polygon class="cls-4" points="143.62 362.64 133.42 384.67 176.11 384.67 175.41 366.98 143.62 362.64"/><polygon class="cls-3" points="176.11 392.33 133.42 392.33 133.42 384.67 154.76 378.11 176.11 384.67 176.11 392.33"/><polygon class="cls-5" points="146.18 339.07 177.85 357.27 180.52 346.63 169.99 337.29 146.18 339.07"/><polygon class="cls-8" points="205.03 254.6 180.52 331.8 206.18 352.28 255.91 331.8 255.77 256.62 236.32 247.97 205.03 254.6"/><polygon class="cls-9" points="153.18 272.82 146.18 339.07 206.18 352.28 205.03 254.6 153.18 272.82"/><polygon class="cls-8" points="255.77 155.36 267.62 132.27 309.99 196.02 254.44 217.65 250.21 205.39 255.77 155.36"/><polygon class="cls-8" points="150.24 134.64 188.84 154.86 223.87 181.87 205.03 254.6 154.42 254.6 154.42 237.58 133.42 183.38 150.24 134.64"/><polygon class="cls-9" points="209.84 176.38 204.99 237.58 205.03 254.6 255.77 254.6 255.91 230.83 267.62 132.27 242.87 129.95 241.99 140.24 241.99 140.24 231.47 139.75 225.94 163.53 209.84 176.38"/><polygon class="cls-8" points="135.37 217.32 118.82 199.73 95.34 380.11 112.13 369.1 120.75 353.53 135.37 217.32"/><polygon class="cls-9" points="133.42 384.67 95.34 380.11 120.75 353.53 133.42 384.67"/><polygon class="cls-10" points="154.42 254.6 255.77 254.6 255.77 273.64 153.18 272.82 154.42 254.6"/><polygon class="cls-11" points="118.82 199.73 123.83 144.22 154.15 132.36 162.79 131.09 153.1 165.66 156.57 206.78 118.82 199.73"/><polygon class="cls-5" points="209.39 167.16 223.37 152.65 231.47 139.75 246.21 141.89 244.92 163.66 209.84 176.38 201.52 168.94 209.39 167.16"/><polygon class="cls-4" points="209.39 167.16 209.84 176.38 153.1 165.66 150.24 134.64 162.79 131.09 177.01 146.52 209.39 167.16"/><polygon class="cls-12" points="159.02 132.27 155.75 77.43 148.96 63.32 136.11 69.25 133.42 140.47 159.02 132.27"/><polygon class="cls-12" points="263.76 62.6 267.62 132.27 247.19 130.5 243.92 55.78 263.76 62.6"/><polygon class="cls-13" points="246.21 141.89 180.52 138.8 161.92 125.51 153.1 24.64 255.79 20.22 246.21 141.89"/><polygon class="cls-14" points="236.32 141.43 169.11 132.59 161.03 34.47 148.96 15.25 159.52 138.08 161.92 153.36 209.39 167.16 234.09 155.01 236.32 141.43"/><polygon class="cls-15" points="199.2 100.45 208.83 107.05 218.47 100.45 199.2 100.45"/><polygon class="cls-14" points="169.07 75.17 189.22 81.36 199.2 100.45 204.88 69.61 176.18 67.01 169.07 75.17"/><polygon class="cls-14" points="218.47 100.45 232.79 81.36 248.59 75.17 241.49 70.7 228.45 69.25 212.78 69.61 212.78 88.73 218.47 100.45"/><polygon class="cls-16" points="218.47 100.45 208.83 102.88 199.2 100.45 204.88 69.61 212.78 69.61 218.47 100.45"/><polygon class="cls-17" points="212.78 69.61 241.49 70.7 248.59 75.17 241.49 63.32 212.78 69.61"/><polygon class="cls-17" points="204.88 69.61 176.18 70.7 169.07 75.17 176.18 63.32 204.88 69.61"/><polygon class="cls-15" points="212.11 159.36 236.32 141.43 159.52 138.08 212.11 159.36"/><polygon class="cls-18" points="136.11 69.25 138.15 18.11 159.52 12.78 176.29 0 233.56 0 246.21 15.25 268.07 24.64 263.76 62.6 252.3 64.58 254.94 28.95 210.62 43.46 162.68 21.88 154.58 83.73 136.11 69.25"/><polygon class="cls-19" points="210.62 43.46 176.29 0 138.15 18.11 161.03 34.47 210.62 43.46"/><polygon class="cls-14" points="167.09 107.97 248.51 112.7 246.21 141.89 169.07 138.5 167.09 107.97"/><polygon class="cls-17" points="233.56 0 210.62 43.46 254.56 34.13 268.07 24.64 233.56 0"/><polygon class="cls-15" points="181.38 116.86 188.84 116 180.52 124.08 181.38 116.86"/><polyline class="cls-20" points="183.91 119.37 187.78 123.24 210.86 123.24"/><polygon class="cls-15" points="167.09 107.97 156.57 103.75 159.52 138.08 169.07 138.5 167.09 107.97"/><circle class="cls-12" cx="228.45" cy="81.36" r="4.88"/><circle class="cls-12" cx="184.68" cy="81.36" r="4.88"/><rect class="cls-21" x="233.16" y="159.61" width="11.01" height="225.87"/><circle class="cls-22" cx="238.66" cy="158.93" r="10.24"/><polygon class="cls-21" points="220.61 389.41 238.26 397.55 248.9 380.11 244.16 227.86 220.61 227.99 220.61 389.41"/><polygon class="cls-23" points="255.91 227.99 238.66 227.99 238.26 397.55 255.91 389.41 255.91 227.99"/><polygon class="cls-22" points="273.94 237.58 284.46 225.45 273.94 214.93 263.97 224.9 246.21 224.9 238.66 217.34 231.11 224.9 214.96 224.9 204.99 214.93 192.87 225.45 204.99 237.58 210.85 230.83 231.11 230.83 238.66 238.38 246.21 230.83 268.08 230.83 273.94 237.58"/><polygon class="cls-4" points="118.82 199.73 154.42 237.58 213.53 227.73 215.54 209.9 207.8 202.15 118.82 199.73"/><polygon class="cls-13" points="213.53 227.73 207.8 202.15 232.91 194.59 213.53 227.73"/><polygon class="cls-4" points="309.99 196.02 259.35 201.89 250.21 212.26 256.61 224.9 281.73 228.49 309.99 196.02"/><polygon class="cls-13" points="232.91 194.59 228.42 211.16 230.53 224.9 256.61 224.9 259.35 201.89 232.91 194.59"/><polygon class="cls-14" points="232.91 194.59 230.53 224.9 213.53 227.73 216.6 208.52 232.91 194.59"/></svg>



