<?xml version="1.0" standalone="no"?><!DOCTYPE svg PUBLIC "-//W3C//DTD SVG 1.1//EN" "http://www.w3.org/Graphics/SVG/1.1/DTD/svg11.dtd"><svg t="1731834368923" class="icon" viewBox="0 0 1141 1024" version="1.1" xmlns="http://www.w3.org/2000/svg" p-id="16987" xmlns:xlink="http://www.w3.org/1999/xlink" width="222.8515625" height="200"><path d="M592.39981 124.20986l378.393999 340.168941v536.595315H164.324593V464.378801z" fill="#EEEEFC" p-id="16988"></path><path d="M577.218807 141.098839l378.398541 340.173484a22.68974 22.68974 0 0 1-7.526906-16.888979v536.595314a22.712452 22.712452 0 0 1 22.712452-22.712452H164.324593a22.712452 22.712452 0 0 1 22.712452 22.712452V464.378801a22.739707 22.739707 0 0 1-8.580764 17.78385l428.070675-340.178026a22.694282 22.694282 0 0 1-29.308149-0.885786zM141.612141 464.378801v536.595315a22.712452 22.712452 0 0 0 22.712452 22.712452h806.473759a22.712452 22.712452 0 0 0 22.712452-22.712452V464.378801a22.730622 22.730622 0 0 0-7.526907-16.888979l-378.393999-340.178027a22.698825 22.698825 0 0 0-29.312691-0.885786l-428.084302 340.173484a22.703367 22.703367 0 0 0-8.580764 17.779308z" fill="#6E6E96" p-id="16989"></path><path d="M587.952712 73.733705L376.431643 250.268513V137.764651H216.858495v245.689682L63.594867 526.433763l104.372803 112.512947 415.401669-370.244771 402.732663 361.2143 103.482475-103.482476z" fill="#FF9494" p-id="16990"></path><path d="M573.398572 56.295084L361.882046 232.829892a22.712452 22.712452 0 0 1 37.266592 17.443163V137.764651a22.712452 22.712452 0 0 0-22.712452-22.712452H216.858495a22.712452 22.712452 0 0 0-22.712452 22.712452v245.689682a22.712452 22.712452 0 0 1 7.218017-16.607345l-153.263628 142.988515a22.716995 22.716995 0 0 0-1.158335 32.056356l104.372803 112.517489a22.712452 22.712452 0 0 0 31.761094 1.508106l415.401668-370.244771a22.72608 22.72608 0 0 1-30.280241-0.049967l402.732663 361.223385a22.721537 22.721537 0 0 0 31.225079-0.853988l103.477933-103.473391a22.712452 22.712452 0 0 0-0.835818-32.919428L603.165513 56.871981a22.712452 22.712452 0 0 0-29.766941-0.576897z m500.128202 454.080976l-103.482476 103.482475a22.703367 22.703367 0 0 1 31.22508-0.853988L598.536715 251.790247a22.721537 22.721537 0 0 0-30.280242-0.049967L152.854804 621.989593a22.712452 22.712452 0 0 1 31.761094 1.508107L80.243094 510.984753a22.712452 22.712452 0 0 1-1.158335 32.056356L232.348388 400.057136a22.703367 22.703367 0 0 0 7.22256-16.607345V137.764651a22.712452 22.712452 0 0 1-22.712453 22.712452h159.573148a22.712452 22.712452 0 0 1-22.712452-22.712452v112.508404a22.712452 22.712452 0 0 0 37.262049 17.438621l211.521069-176.534807a22.712452 22.712452 0 0 1-29.771483-0.576897l501.636308 452.700059a22.676112 22.676112 0 0 1-7.481481-16.280286 22.68974 22.68974 0 0 1 6.641121-16.643685z" fill="#6E6E96" p-id="16991"></path><path d="M387.438097 1001.287548V806.564608c0-107.089213 82.246333-194.718397 182.780732-194.718396s182.780732 87.629184 182.780732 194.718396v194.72294H387.438097z" fill="#93A5CC" p-id="16992"></path><path d="M410.15055 1001.287548V806.564608c0-94.847201 71.807689-172.005944 160.068279-172.005944 88.269675 0 160.068279 77.158743 160.068279 172.005944v194.72294l22.712453-22.712453H387.438097l22.712453 22.712453z m365.566006 0V806.564608c0-119.899036-92.185302-217.430849-205.493184-217.430849s-205.493184 97.540898-205.493184 217.430849v217.435392h410.99091v-22.712452z" fill="#6E6E96" p-id="16993"></path><path d="M187.037045 927.472077h761.048854v73.502039H187.037045zM187.037045 713.975025l394.924122-354.309714 366.12019 327.054771 21.962941-72.870632-386.674959-345.147511-400.288803 364.484893z" fill="#6E6E96" opacity=".15" p-id="16994"></path><path d="M981.559512 553.229915l-402.732663-361.218843-415.401669 370.249314-78.453353-84.572088L59.052376 501.867975l104.372804 112.512947 415.401669-370.249314 402.732663 361.2143 103.482475-103.477933-27.39576-24.724776z" fill="#6E6E96" opacity=".15" p-id="16995"></path></svg>