<svg xmlns="http://www.w3.org/2000/svg" viewBox="0 0 600 450"><defs><style>.a,.br,.u{fill:#2b2b2b;}.a,.ad,.ae,.ak,.ao,.ap,.b,.bb,.bc,.bd,.bl,.c,.d,.e,.f,.g,.h,.i,.j,.k,.l,.m,.n,.o,.p,.q,.r,.s,.t{fill-rule:evenodd;}.a,.br{opacity:0.1;}.av,.b{fill:#738d57;}.bn,.c{fill:#35785d;}.d,.z{fill:#dfbda5;}.ac,.e{fill:#8b6651;}.ab,.f{fill:#c3987b;}.aa,.g{fill:#e8cab6;}.aw,.h{fill:#5a753d;}.ah,.i{fill:#fff;}.bo,.j{fill:#54b08b;}.bp,.k{fill:#3f8f6f;}.bm,.l{fill:#72c9a6;}.ay,.m{fill:#99c26d;}.n,.y{fill:#474747;}.ba,.o{fill:#446125;}.p{fill:#a0cf7e;}.ax,.q{fill:#709d53;}.as,.r{fill:#ececeb;}.s{fill:#a3a3a3;}.be,.t{fill:#4f5253;}.v{fill:#e2a942;}.ae,.w{fill:#bc8f2d;}.x{fill:#b3889d;}.ad,.an{fill:#8d7c2f;}.af{fill:#8f8f8f;}.ag{fill:#737373;}.ai{fill:#543042;}.aj,.ao{fill:#96637c;}.ak{fill:#d1a1b8;}.al{fill:#6f7173;}.am,.ap{fill:#734d60;}.aq{fill:#72cbcc;}.ar{fill:#369496;}.at{fill:#cececd;}.au{fill:#165e60;}.az{fill:#bfdb8e;}.bb,.bf{fill:#755800;}.bc,.bg{fill:#9e7700;}.bd,.bk{fill:#e5c828;}.bh{fill:#856400;}.bi{fill:#ccad14;}.bj,.bl{fill:#b58b00;}.bq{fill:#e8f078;}.bs{fill:#3aa0ba;}.bt{fill:#27788c;}.bu{fill:#1c7678;}.bv{fill:#50a9aa;}.bw{fill:#5ec0d9;}.bx{fill:#318fa6;}</style></defs><title>theory_trait_extravertion</title><polygon class="a" points="13.35 342.01 134.5 282.7 419.81 285.77 576.99 343.64 286.02 381.91 13.35 342.01"/><polygon class="b" points="241.74 171.3 205.74 148.7 230.97 130.69 189.32 134.61 173.15 193.96 247.75 193.96 241.74 171.3"/><polygon class="c" points="250.99 127.98 230.8 118.56 231.17 112.15 236.52 106.31 243.66 113.8 250.99 127.98"/><polygon class="d" points="170.9 64.78 169.63 92.26 172.1 109.97 172.43 122.12 194.82 123.82 198.77 147.33 203.81 153.32 218.16 145.62 236.52 106.31 214.93 73.95 189.06 52.74 170.9 64.78"/><polygon class="e" points="194.03 56.82 170.74 64.89 180.53 55.7 189.06 52.74 192.83 53.31 194.03 56.82"/><polygon class="f" points="190.09 95.34 197.94 79.56 204.37 72.25 193.27 69.2 191.73 74.16 190.09 95.34"/><polygon class="f" points="186.76 73.85 185.04 68.93 174.37 71.32 185.84 88 186.76 73.85"/><polygon class="e" points="185.38 95.08 187.64 98.52 190.09 95.34 185.38 95.08"/><polygon class="f" points="214.93 73.95 213.26 124.48 202.72 129.64 196.8 135.57 195.71 141.21 198.77 147.33 203.81 153.32 218.16 145.62 225.31 134.49 230.8 118.56 231.17 112.15 236.52 106.31 214.93 73.95"/><polygon class="g" points="186.76 73.85 185.38 95.08 190.09 95.34 191.73 74.16 186.76 73.85"/><polygon class="e" points="214.93 73.95 220.97 93.25 229.48 102.23 217.88 103.76 230.8 118.56 236.52 106.31 229.1 92.7 214.93 73.95"/><polygon class="h" points="185.03 68.93 178.89 66.22 174.37 71.32 185.03 68.93"/><polygon class="h" points="193.27 69.2 198.78 67.31 204.37 72.25 193.27 69.2"/><polygon class="h" points="176.01 105.27 186.76 116.22 202 106.7 176.01 105.27"/><polygon class="i" points="178.74 106.11 199.29 106.94 189.93 111.96 184.21 111.52 178.74 106.11"/><polygon class="j" points="189.06 52.74 214.93 73.95 238.89 95.93 262.69 113.11 269.39 100.14 270.81 88.74 245.91 76.48 224.33 68.28 210.23 60.8 189.06 52.74"/><polygon class="k" points="214.93 73.95 262.69 113.11 250.99 127.98 214.93 73.95"/><polygon class="k" points="224.33 68.28 244.16 49.23 270.81 88.74 224.33 68.28"/><polygon class="k" points="270.81 88.74 281.72 105.68 262.69 113.11 270.81 88.74"/><polygon class="l" points="189.06 52.74 199.43 38.42 244.16 49.23 224.33 68.28 189.06 52.74"/><polygon class="k" points="170.9 64.78 172.1 109.97 167.28 104.31 162.26 101.7 157.46 97.65 165.64 68.27 167.19 64.69 170.9 64.78"/><polygon class="j" points="189.06 52.74 165.64 68.27 158.64 53.49 199.43 38.42 189.06 52.74"/><polygon class="m" points="223.06 86.14 217.88 103.76 239.91 111.38 235.16 104.26 223.81 100.19 226.33 91.03 223.06 86.14"/><polygon class="m" points="171.43 84.83 162.26 101.7 172.1 109.97 171.88 101.61 168.91 99.39 171.69 94.39 171.43 84.83"/><polygon class="e" points="194.82 123.82 221.41 124.77 200.1 150.99 194.82 123.82"/><polygon class="d" points="267.95 141.4 273.32 130.13 287.58 117.09 295.43 122.85 287.09 139.86 279.23 148.7 267.95 141.4"/><polygon class="f" points="287.58 117.09 277.56 126.25 289.72 134.5 295.43 122.85 287.58 117.09"/><polygon class="f" points="267.95 141.4 266.92 126.3 269.61 122.85 276.22 135.51 271.57 143.74 267.95 141.4"/><polygon class="m" points="189.32 134.61 179.33 168.36 204.84 159.45 205.74 148.7 189.32 134.61"/><polygon class="m" points="230.97 130.69 241.74 171.3 205.74 148.7 230.97 130.69"/><polygon class="n" points="214.47 193.96 210.45 176.2 200.99 174.81 197.02 193.96 214.47 193.96"/><polygon class="o" points="230.8 118.56 230.97 130.69 218.91 139.86 230.8 118.56"/><polygon class="o" points="195.71 129.19 189.32 134.61 198.57 143.2 195.71 129.19"/><polygon class="p" points="189.32 134.61 150.37 168.36 159.22 187.54 187.06 183.21 192.09 160.53 181.23 162.12 189.32 134.61"/><polygon class="q" points="189.32 134.61 150.37 168.36 181.23 162.12 189.32 134.61"/><polygon class="q" points="204.16 177.93 200.99 174.81 199.54 145.57 219.61 145.57 218.24 174.81 214.82 177.93 204.16 177.93"/><polygon class="h" points="218.24 174.81 219.61 145.57 219.32 145.57 216.28 148.94 204.16 177.93 214.82 177.93 218.24 174.81"/><polygon class="r" points="202.63 148.94 198.57 145.82 198.57 143.2 220.66 143.2 220.66 145.82 216.28 148.94 202.63 148.94"/><polygon class="s" points="202.63 146.32 198.57 143.2 203.03 140.79 216.22 140.79 220.66 143.2 216.28 146.32 202.63 146.32"/><polygon class="t" points="202.72 143.2 200.1 144.37 202.63 146.32 216.28 146.32 219.04 144.35 215.91 143.2 202.72 143.2"/><polygon class="q" points="230.97 130.69 257.67 156.23 255.42 173.2 241.74 171.3 230.97 130.69"/><polygon class="h" points="241.74 171.3 268.17 139.86 287.68 152.49 247.75 193.96 241.74 171.3"/><polygon class="d" points="192.09 160.53 205.28 152.49 217.66 159.2 218.44 170.54 204.28 168.33 188.41 177.14 192.09 160.53"/><polygon class="f" points="219 158.69 205.28 152.49 204.28 168.33 218.44 170.54 219 158.69"/><polygon class="o" points="187.36 103.78 202 106.7 186.43 108.44 176.01 105.27 187.36 103.78"/><circle class="u" cx="178.99" cy="80.07" r="2.87"/><circle class="u" cx="198.57" cy="80.77" r="2.87"/><polygon class="v" points="42.17 283.66 57.34 276.51 53.88 234.78 19.07 244.72 33.74 281.12 42.17 283.66"/><polygon class="w" points="51.92 301.84 51.92 307.92 97.99 323.52 132.16 298.98 131.7 293.76 51.92 301.84"/><polygon class="v" points="60.88 294.81 51.92 301.84 97.38 317.29 131.7 293.76 60.88 294.81"/><polygon class="x" points="51.35 195.19 33.74 203.97 50.07 224.24 56.52 246.36 54.99 259.61 58.2 282.7 122.22 242.76 99.59 187.9 81.19 185.06 51.35 195.19"/><polygon class="y" points="80.3 121.31 77.25 100.45 70.46 101.19 72.3 105.36 80.3 121.31"/><polygon class="z" points="72.49 105.52 99.59 160.3 78.99 177.41 81.19 185.06 51.35 195.19 30.81 167.91 23.75 138.65 29.79 124.61 72.49 105.52"/><polygon class="aa" points="61.07 132.19 66.83 129.64 75.4 146.21 69.25 149.76 61.07 132.19"/><polygon class="ab" points="38.49 155.69 30.81 167.91 51.35 195.19 81.19 185.06 78.99 177.41 99.59 160.3 59.34 178.69 39.35 140 29.79 124.61 23.75 138.65 38.49 155.69"/><polygon class="ac" points="32.54 170.83 32.56 171.03 39.26 179.13 37.47 163.82 32.54 170.83"/><polygon class="ac" points="99.59 160.3 52.76 181.69 81.19 185.06 78.99 177.41 99.59 160.3"/><polygon class="ad" points="131.7 293.76 94.83 297.49 91.67 307.72 122.22 300.26 125.19 303.99 132.16 298.98 131.7 293.76"/><polygon class="ae" points="95.82 294.29 91.67 307.72 122.22 300.26 122.22 300.26 131.7 293.76 95.82 294.29"/><polygon class="ac" points="75.4 146.21 73.87 151.79 69.25 149.76 75.4 146.21"/><polygon class="af" points="61.14 117.61 77.25 100.45 52.83 93.36 4.88 129.08 11.84 161.11 21.57 163.01 35.15 161.01 38.49 155.69 23.75 138.65 29.79 124.61 61.14 117.61"/><polygon class="ag" points="52.83 93.36 61.14 117.61 77.25 100.45 52.83 93.36"/><polygon class="ag" points="5.23 129.44 5.03 129.78 11.84 161.11 23.75 138.65 29.79 124.61 4.88 129.08 5.23 129.44"/><polygon class="y" points="35.15 161.01 38.49 155.69 23.75 138.65 11.84 161.11 21.57 163.01 35.15 161.01"/><polygon class="z" points="37.47 163.82 35.15 161.01 26.43 154.23 21.57 163.01 32.54 170.83 37.47 163.82"/><polygon class="ac" points="25.41 162.36 27.18 159.16 31.77 163.44 25.41 162.36"/><polygon class="ah" points="81.19 185.06 82.72 208.18 51.35 195.19 81.19 185.06"/><polygon class="ai" points="109.88 212.85 82.72 208.18 95.22 259.61 95.22 259.61 122.22 242.76 109.88 212.85"/><polygon class="aj" points="109.88 212.85 99.59 187.9 81.19 185.06 82.72 208.18 109.88 212.85"/><polygon class="ak" points="33.74 203.97 1 222.84 50.07 224.24 33.74 203.97"/><polygon class="al" points="58.2 282.7 60.88 294.81 91.67 307.72 131.7 293.76 161.98 263.21 95.22 259.61 58.2 282.7"/><polygon class="y" points="161.98 263.21 161.98 314.04 134.86 329.31 131.7 293.76 161.98 263.21"/><polygon class="aj" points="134.86 329.31 134.86 339.58 175.15 334.44 161.98 314.04 134.86 329.31"/><polygon class="am" points="150.37 337.6 140.84 325.94 140.84 325.94 134.86 329.31 134.86 339.58 150.37 337.6 150.37 337.6"/><polygon class="y" points="122.22 242.76 171.99 238.99 161.98 263.21 95.22 259.61 122.22 242.76"/><polygon class="ag" points="171.99 238.99 179.68 290.72 161.98 314.04 161.98 263.21 171.99 238.99"/><polygon class="aj" points="168.29 323.84 197.62 296.88 179.68 290.72 161.98 314.04 168.29 323.84"/><polygon class="am" points="169.79 325.05 199.12 299.09 197.62 296.88 168.8 321.33 169.79 325.05"/><polygon class="am" points="167.37 322.4 173.97 317.15 179.68 290.72 161.98 314.04 167.37 322.4"/><polygon class="w" points="97.99 323.52 103.52 349.76 97.99 348.54 92.04 321.5 97.99 323.52"/><polygon class="v" points="103.52 349.76 107.03 346.34 101.63 320.9 97.99 323.52 103.52 349.76"/><polygon class="v" points="51.92 307.92 53.36 334.05 58.2 336.16 58.2 310.04 51.92 307.92"/><polygon class="w" points="58.2 336.16 60.99 333.65 62.15 311.38 58.2 310.04 58.2 336.16"/><polygon class="w" points="19.07 244.72 33.74 281.12 42.17 283.66 26.46 243.11 19.07 244.72"/><polygon class="w" points="42.17 283.66 51.92 301.84 56.29 298.41 48.41 280.72 42.17 283.66"/><polygon class="v" points="44.69 282.47 53.35 300.72 55.48 300.72 56.29 298.41 48.41 280.72 44.69 277.18 44.69 282.47"/><polygon class="n" points="64.57 125.66 66.75 129.64 71.13 123.78 76.28 122.63 74.51 119.1 69.09 120.16 64.57 125.66"/><polygon class="n" points="61.07 132.19 59.4 127.91 49.75 127.37 42.76 131.43 45.51 135.15 51.58 131.88 61.07 132.19"/><polygon class="ab" points="48.91 133.32 65.6 141.92 61.07 132.19 51.58 131.88 48.91 133.32"/><polygon class="ab" points="76.28 122.63 70.92 137.54 66.92 129.42 71.13 123.78 76.28 122.63"/><polygon class="ah" points="63.91 161.67 82.66 152.21 82.62 157.8 70.47 163.56 63.91 161.67"/><path class="ac" d="M70.54,164.4l-8.79-2.53,21.7-10.94,0,7.38Zm-4.47-2.93,4.34,1.24,11.42-5.41,0-3.8Z"/><polygon class="w" points="53.88 278.14 53.88 278.14 57.34 276.51 53.88 234.78 19.07 244.72 48.46 247.86 53.88 278.14"/><polygon class="an" points="26.46 243.11 19.07 244.72 27.43 245.61 26.46 243.11"/><polygon class="ao" points="1 222.84 19.07 244.72 51.92 237.58 50.07 224.24 1 222.84"/><polygon class="ap" points="82.72 208.18 66.39 216.21 50.07 224.24 60.2 252.02 54.99 259.61 58.2 282.7 76.71 271.15 95.22 259.61 88.97 233.89 82.72 208.18"/><polygon class="d" points="50.07 224.24 57.18 227.93 68.41 246.36 53.35 247.86 50.07 224.24"/><polygon class="e" points="68.41 246.36 54.99 259.61 53.35 247.86 68.41 246.36"/><circle class="u" cx="56.85" cy="138.26" r="2.87"/><circle class="u" cx="74.51" cy="129.42" r="2.87"/><polygon class="aq" points="358.03 134.97 349.34 132.96 331.88 193.96 409.82 193.96 402.76 134.05 395.76 136.82 358.03 134.97"/><polygon class="ab" points="387.67 134.59 393.71 128.39 411.34 93.85 402.44 58.73 398.26 69.74 386.64 120.86 381.76 131.99 380.18 138.51 387.67 134.59"/><polygon class="ac" points="365.88 135.95 363.83 128.28 359.2 116.48 361.11 115.48 386.98 118.58 388.64 119.97 380.18 138.51 365.88 135.95"/><polygon class="y" points="347.57 88.74 341.36 52.94 343.82 52.68 350.72 55.33 351.49 57.71 347.57 88.74"/><polygon class="z" points="350.72 55.33 343.57 114.65 388.69 119.93 402.48 58.73 350.72 55.33"/><polygon class="ac" points="403.88 108.47 407.68 101.01 397.84 99.01 403.88 108.47"/><polygon class="u" points="370.98 70.41 341.36 52.94 360.08 35.13 362.47 34.61 371.66 67.17 393.71 40.15 396.61 39.64 412.19 55.24 411.19 56.26 398.14 61.54 396.64 60.96 370.98 70.41"/><polygon class="ag" points="378.9 22.17 396.61 39.64 370.98 70.41 360.08 35.13 378.9 22.17"/><path class="u" d="M421.89,81.15l-9.7-25.91-2.9,3s-8,23.4-8.09,23.65a27.23,27.23,0,0,0-.16,2.94l6.64,16.2,14.21-19.86Z"/><polygon class="y" points="401.04 84.81 396.64 60.96 412.19 55.24 401.04 84.81"/><polygon class="z" points="397.84 99.01 407.68 101.01 411.46 86.3 401.04 84.81 397.84 99.01"/><polygon class="ab" points="400.93 94.57 402.59 87.63 408.38 88.61 400.93 94.57"/><polygon class="ab" points="362.64 92.48 355.91 79.02 349.6 72.7 365.79 75.27 368 78.85 373.11 75.69 379.41 75.1 393.71 76.8 381.88 80.04 370.81 92.57 362.64 92.48"/><polygon class="ab" points="365.79 96.66 362.64 92.48 370.81 92.57 365.79 96.66"/><polygon class="aa" points="365.79 75.27 362.64 92.48 370.81 92.57 373.11 75.69 365.79 75.27"/><polygon class="u" points="362.63 74.77 353.87 68.11 349.6 72.7 362.63 74.77"/><polygon class="u" points="379.17 75.12 390.99 70.67 393.71 76.8 379.17 75.12"/><polygon class="ah" points="355.1 99.01 380.65 103 375.2 111.55 357.24 108.74 355.1 99.01"/><path class="ab" d="M375.6,112.42l-19-3L354.07,98,382,102.39ZM357.9,108l16.91,2.64,4.5-7.07L356.14,100Z"/><polygon class="ar" points="377 135.9 358.03 134.97 349.34 132.96 331.88 193.96 368.57 193.96 373.03 160.65 377 135.9"/><polygon class="as" points="376.73 134.05 368.57 143.53 358.03 134.97 363.57 127.63 376.73 134.05"/><polygon class="as" points="393.71 128.39 395.76 136.82 381.2 144.59 376.73 134.05 393.71 128.39"/><polygon class="at" points="368.57 143.53 373.03 160.65 381.2 144.59 376.73 134.05 368.57 143.53"/><polygon class="u" points="379.75 141.17 376.73 134.05 371.18 140.49 371.18 140.49 373.03 144.59 376.73 145.25 379.75 141.17 379.75 141.17"/><polygon class="y" points="373.03 144.59 370.05 149.25 373.03 160.65 378 150.88 376.73 145.25 373.03 144.59"/><polygon class="ar" points="373.03 160.65 388.64 150.34 395.76 136.82 381.2 144.59 373.03 160.65"/><polygon class="aq" points="358.03 134.97 358.03 146.82 373.03 160.65 368.57 143.53 358.03 134.97"/><polygon class="au" points="372.26 166.39 367.38 170.43 371.07 175.26 375.74 171.71 372.26 166.39"/><polygon class="ar" points="402.76 134.05 432.99 170.02 436.85 178.96 425.17 189.95 407.68 178.96 402.76 134.05"/><polygon class="aq" points="425.17 189.95 448.05 169.97 447.06 144.58 431.68 147.84 425.17 189.95"/><polygon class="as" points="432.89 140.75 431.68 147.84 447.06 144.58 446.84 138.87 432.89 140.75"/><polygon class="ab" points="432.89 140.75 435.09 123.58 439.37 122.78 440.04 130.86 432.89 140.75"/><polygon class="z" points="432.89 140.75 445.34 121.67 451.03 121.2 457.8 121.97 446.84 138.87 432.89 140.75"/><polygon class="ab" points="457.8 121.97 454.96 108.79 446.52 114.49 445.34 121.67 457.8 121.97"/><polygon class="aq" points="349.34 132.96 318.18 159.64 318.18 169.9 320.82 186.32 336.16 179 349.34 132.96"/><polygon class="ar" points="301.76 135.34 295.89 158.41 320.82 186.32 317.27 139.41 301.76 135.34"/><polygon class="as" points="316.78 132.96 303.52 128.39 301.76 135.34 317.27 139.41 316.78 132.96"/><polygon class="z" points="303.52 128.39 296.76 112.24 308.35 112.24 316.78 132.96 303.52 128.39"/><polygon class="ab" points="296.76 112.24 300.63 100.33 311.34 105.18 308.35 112.24 296.76 112.24"/><polygon class="ab" points="312.56 122.6 314.14 115.48 317.27 117.33 316.78 132.96 312.56 122.6"/><polygon class="au" points="369.74 185.19 365.14 188.87 368.68 193.96 373.48 190.19 369.74 185.19"/><circle class="u" cx="355.1" cy="81.94" r="2.87"/><circle class="u" cx="381.99" cy="83.34" r="2.87"/><polygon class="av" points="337.77 336.6 336.34 351.52 349.77 351.59 347.3 327.78 342.52 329.76 337.77 336.6"/><polygon class="av" points="315.66 331.88 308.71 347.6 320.54 347.43 323.91 333.64 320.68 330.94 315.66 331.88"/><polygon class="aw" points="370.79 316.33 362.97 335.39 378.2 335.73 382.81 316.24 370.79 316.33"/><polygon class="ax" points="339.89 243.42 329.44 258.71 350.32 258.92 339.89 243.42"/><polygon class="aw" points="325.8 302.92 356.8 275.77 361.88 292.11 361.88 316.39 347.3 327.78 325.8 302.92"/><polygon class="ax" points="343.34 305.18 352.46 301.5 356.8 320.36 343.45 319.03 343.34 305.18"/><polygon class="ax" points="327.58 301.53 320.08 295.18 305.74 310.39 317.87 313.2 327.58 301.53"/><polygon class="ax" points="356.8 275.77 383.56 291.14 379.6 313.68 361.88 316.39 356.8 275.77"/><polygon class="ay" points="356.8 275.77 366.67 258.2 339.89 243.42 356.8 275.77"/><polygon class="av" points="361.88 316.39 383.56 291.14 382.81 316.24 361.88 316.39"/><polygon class="ay" points="343.34 305.18 347.3 327.78 333.62 335.8 320.5 332.58 311 319.27 327.58 301.53 343.34 305.18"/><polygon class="az" points="336.34 325.25 347.3 327.78 337.77 336.6 315.66 331.88 311 319.27 323.45 322.37 336.34 325.25"/><polygon class="aw" points="336.34 325.25 323.45 322.37 328.72 329.76 336.34 325.25"/><polygon class="ax" points="328.72 329.76 325.8 334.04 329.51 334.84 328.72 329.76"/><circle class="y" cx="326.3" cy="313.68" r="2.39"/><circle class="y" cx="336.34" cy="316.07" r="2.39"/><polygon class="ax" points="531.43 283.66 513.22 275.15 515.2 245.46 534.21 214.42 559.18 227.71 539.86 281.12 531.43 283.66"/><polygon class="aw" points="521.67 301.84 521.67 307.92 475.6 323.52 441.43 298.98 441.9 293.76 521.67 301.84"/><polygon class="ax" points="512.71 294.81 521.67 301.84 476.22 317.29 441.9 293.76 512.71 294.81"/><path class="aw" d="M481.05,294.34l-39.15-.58,17.74,12.16h0l26,2.32S483.66,302.15,481.05,294.34Z"/><polygon class="ba" points="441.43 298.98 458.55 311.27 458.55 311.27 459.64 305.92 441.9 293.76 441.43 298.98"/><polygon class="aw" points="475.6 323.52 470.07 349.76 475.6 348.54 481.55 321.5 475.6 323.52"/><polygon class="ax" points="470.07 349.76 466.56 346.34 471.96 320.9 475.6 323.52 470.07 349.76"/><polygon class="ax" points="521.67 307.92 520.24 334.05 515.4 336.16 515.4 310.04 521.67 307.92"/><polygon class="f" points="427.43 273.98 438.6 292.58 418.16 319.65 418.95 327 399.97 327.99 392.6 324.84 412.51 315.76 427.43 273.98"/><polygon class="bb" points="418.95 327 417.87 333.62 392.64 328.37 418.95 327"/><polygon class="bc" points="403.31 319.95 405.5 327.74 401.96 327.91 399.95 321.49 403.31 319.95"/><polygon class="e" points="399.86 327.99 392.6 324.84 389.34 322.77 392.64 328.37 399.86 327.99"/><polygon class="f" points="427.21 290.72 447.99 296.95 451.11 330.73 456.64 335.62 443.27 349.14 435.71 351.78 444.31 331.65 427.21 290.72"/><polygon class="bb" points="456.64 335.62 460.31 341.25 438.12 354.35 456.64 335.62"/><polygon class="bc" points="440.34 340.94 447.2 345.23 444.69 347.74 438.89 344.34 440.34 340.94"/><polygon class="e" points="443.2 349.21 435.71 351.78 431.9 352.44 438.12 354.35 443.2 349.21"/><polygon class="e" points="448.57 303.26 447.99 296.95 437.64 293.84 438.6 292.58 427.43 273.98 421.45 290.72 428.23 306.31 434.47 298.05 448.57 303.26"/><polygon class="aw" points="515.4 336.16 512.6 333.65 511.45 311.38 515.4 310.04 515.4 336.16"/><polygon class="aw" points="559.18 227.71 539.86 281.12 531.43 283.66 553.06 224.45 559.18 227.71"/><polygon class="aw" points="531.43 283.66 521.67 301.84 517.3 298.41 525.18 280.72 531.43 283.66"/><polygon class="ax" points="528.91 282.47 520.24 300.72 517.3 300.72 517.3 298.41 525.18 280.72 527.9 278.65 528.91 282.47"/><polygon class="bd" points="513.22 282.96 513.22 301.31 485.67 308.24 427.21 290.72 477.72 263.3 513.22 282.96"/><polygon class="z" points="488.35 191.32 469.43 222.92 496.19 221.52 521.4 243.99 534.21 214.42 488.35 191.32"/><polygon class="aw" points="523.17 232.44 515.2 245.46 513.22 275.15 517.67 277.23 528.39 254.98 541.39 256.38 548.8 256.38 552.87 245.15 523.17 232.44"/><polygon class="ba" points="546.5 242.43 541.39 256.38 541.39 256.38 548.8 256.38 552.87 245.15 546.5 242.43"/><polygon class="be" points="484.09 106.97 465.79 122.51 482.29 145.49 488.35 127.24 484.09 106.97"/><polygon points="470.6 129.2 468.05 138.22 482.29 145.49 470.6 129.2"/><polygon class="u" points="483.1 129.22 483.08 129.07 465.79 122.51 482.29 145.49 483.1 129.22"/><polygon class="bf" points="482.73 136.63 471.59 151.9 481.59 160.14 481.92 153.33 479.23 151.13 482.22 147.07 482.73 136.63"/><polygon class="af" points="583.4 148.76 594.61 154.32 594.43 167.71 559.18 193.04 529.06 188.49 543.56 160.69 583.4 148.76"/><polygon class="z" points="484.09 108.04 480.66 179.6 503.41 180.96 504.51 197.23 519.16 207.48 543.56 160.69 519.97 127.57 484.09 108.04"/><polygon class="ab" points="522.45 152.38 518.76 181.71 504.51 183.13 502.68 198.68 519.16 207.48 543.62 160.67 524.91 134.5 522.45 152.38"/><polygon class="ab" points="485.52 125.83 495.46 146.31 496.19 131.5 494.9 127.71 485.52 125.83"/><polygon class="ab" points="500.75 151.59 505.36 142.14 508.27 139.43 501.34 131.98 500.75 151.59"/><polygon class="ac" points="543.56 160.69 519.97 127.57 484.09 106.97 483.87 112.65 483.87 112.65 522.12 154.97 526.85 156.42 528.39 165.24 537.03 173.21 543.56 160.69"/><polygon class="ag" points="559.7 129.89 595.59 136.88 561.08 171.77 529.08 151.43 559.7 129.89"/><polygon class="y" points="567.76 153.44 543.62 160.67 554.71 183.75 594.43 167.71 567.76 153.44"/><polygon class="u" points="562.27 139.39 553.06 148.02 561.08 171.77 595.59 136.88 562.27 139.39"/><polygon class="be" points="515.7 96.34 551.57 96.72 562.27 139.39 515.7 96.34"/><polygon class="ac" points="503.41 180.96 502.68 198.68 523.76 181.96 503.41 180.96"/><polygon class="g" points="496.19 131.5 495.21 151.31 500.75 151.59 501.34 131.98 496.19 131.5"/><polygon class="e" points="495.21 151.31 497.71 154.8 500.75 151.59 495.21 151.31"/><polygon class="af" points="476.26 97.95 569.14 145.74 503.74 85.28 476.26 97.95"/><polygon class="y" points="569.14 145.74 476.26 97.95 522.45 152.38 569.14 145.74"/><polygon points="561.08 171.77 529.08 151.43 553.06 148.02 561.08 171.77"/><polygon class="u" points="543.62 160.67 559.18 193.04 537.03 173.21 543.62 160.67"/><polygon class="bf" points="529.08 151.43 528.39 165.24 546.25 165.97 543.62 160.67 534.2 160.11 534.28 154.73 529.08 151.43"/><polygon class="u" points="554.71 183.75 559.18 193.04 594.43 167.71 554.71 183.75"/><polygon points="537.03 173.21 529.06 188.49 559.18 193.04 537.03 173.21 537.03 173.21"/><polygon class="be" points="583.69 148.9 594.43 167.71 575.24 157.44 583.69 148.9"/><polygon class="u" points="485.52 125.83 494.9 127.71 493.26 123.05 485.52 125.83"/><polygon class="bg" points="488.35 191.32 469.43 222.92 496.19 221.52 488.35 191.32"/><polygon class="bg" points="496.19 221.52 521.4 243.99 534.21 214.42 496.19 221.52"/><polygon class="bf" points="513.22 282.96 521.4 243.99 496.19 221.52 469.43 222.92 477.72 263.3 513.22 282.96"/><polygon class="z" points="534.21 214.42 545.08 240.65 539.3 249.34 529.75 251.12 521.4 243.99 534.21 214.42"/><polygon class="ab" points="529.75 251.12 569.02 224.5 574.33 229.2 558.26 252.24 529.75 251.12"/><polygon class="z" points="569.02 224.5 592.71 217.17 592.71 227.71 574.33 229.2 569.02 224.5"/><polygon class="ab" points="592.71 217.17 600.48 212.04 600.48 220.33 592.71 227.71 592.71 217.17"/><polygon class="ac" points="569.02 224.5 579.41 213.49 583.1 214.42 580.87 220.84 569.02 224.5"/><polygon class="bh" points="485.38 161.24 497.68 156.91 516.65 159.35 498.62 176.86 485.38 161.24"/><polygon class="t" points="496.43 170.43 501.48 170.16 511.21 160.81 489.56 162.15 496.43 170.43"/><polygon class="ah" points="489.56 162.15 511.21 160.81 506.34 165.49 492.99 166.29 489.56 162.15"/><circle class="u" cx="489.81" cy="136.49" r="2.87"/><circle class="u" cx="507.38" cy="139.51" r="2.87"/><polygon class="bi" points="143.29 193.04 443.13 193.04 500.75 283.66 79.55 283.66 143.29 193.04"/><rect class="bf" x="79.55" y="283.66" width="421.19" height="7.05"/><rect class="bj" x="157.35" y="290.72" width="12.31" height="64.51"/><rect class="bj" x="410.64" y="290.72" width="12.31" height="64.51"/><polygon class="bg" points="500.75 283.66 286.83 231.29 79.55 283.66 500.75 283.66"/><polygon class="bk" points="500.75 283.66 443.13 192.85 143.36 192.85 286.83 231.29 443.13 193.04 500.75 283.66"/><polygon class="bj" points="443.13 193.04 286.83 231.29 500.75 283.66 443.13 193.04"/><rect class="bf" x="157.35" y="289.64" width="12.31" height="7.93"/><rect class="bf" x="410.64" y="289.64" width="12.31" height="7.93"/><polygon class="bl" points="151.47 248.44 166.07 245.27 182.59 248.44 166.07 253.78 151.47 248.44"/><polygon class="q" points="159.84 250.87 156.5 247.59 154.98 216.79 176.11 216.79 174.67 247.59 171.07 250.87 159.84 250.87"/><polygon class="h" points="174.67 247.59 176.11 216.79 175.81 216.79 172.6 220.35 159.84 250.87 171.07 250.87 174.67 247.59"/><polygon class="r" points="158.24 220.35 153.95 217.06 153.95 214.3 177.21 214.3 177.21 217.06 172.6 220.35 158.24 220.35"/><polygon class="s" points="158.24 217.58 153.95 214.3 158.65 211.76 172.54 211.76 177.21 214.3 172.6 217.58 158.24 217.58"/><polygon class="t" points="158.32 214.3 155.56 215.53 158.24 217.58 172.6 217.58 175.51 215.51 172.21 214.3 158.32 214.3"/><polygon class="o" points="162.97 239.2 159.88 233.83 162.97 228.47 169.17 228.47 172.27 233.83 169.17 239.2 162.97 239.2"/><polygon class="bc" points="335.75 219.32 342.4 214.95 360.65 213.23 367.98 215.73 355.74 223.2 335.75 219.32"/><polygon class="q" points="345.75 218.24 342.4 214.95 340.88 184.16 362.01 184.16 360.57 214.95 356.97 218.24 345.75 218.24"/><polygon class="h" points="360.57 214.95 362.01 184.16 361.71 184.16 358.51 187.71 345.75 218.24 356.97 218.24 360.57 214.95"/><polygon class="r" points="344.14 187.71 339.86 184.43 339.86 181.66 363.12 181.66 363.12 184.43 358.51 187.71 344.14 187.71"/><polygon class="s" points="344.14 184.95 339.86 181.66 344.56 179.13 358.44 179.13 363.12 181.66 358.51 184.95 344.14 184.95"/><polygon class="t" points="344.22 181.66 341.47 182.9 344.14 184.95 358.51 184.95 361.41 182.88 358.11 181.66 344.22 181.66"/><polygon class="o" points="349.32 206.56 346.22 201.2 349.32 195.83 355.51 195.83 358.61 201.2 355.51 206.56 349.32 206.56"/><polygon class="bc" points="408.56 246.51 423.16 243.35 439.68 246.51 423.16 251.85 408.56 246.51"/><polygon class="q" points="418.83 248.76 415.48 245.47 413.96 214.68 435.09 214.68 433.65 245.47 430.05 248.76 418.83 248.76"/><polygon class="h" points="433.65 245.47 435.09 214.68 434.79 214.68 431.59 218.24 418.83 248.76 430.05 248.76 433.65 245.47"/><polygon class="r" points="417.22 218.24 412.94 214.95 412.94 212.18 436.19 212.18 436.19 214.95 431.59 218.24 417.22 218.24"/><polygon class="s" points="417.22 215.47 412.94 212.18 417.64 209.65 431.52 209.65 436.19 212.18 431.59 215.47 417.22 215.47"/><polygon class="t" points="417.3 212.18 414.55 213.42 417.22 215.47 431.59 215.47 434.49 213.4 431.19 212.18 417.3 212.18"/><polygon class="o" points="421.42 237.09 418.32 231.72 421.42 226.36 427.62 226.36 430.71 231.72 427.62 237.09 421.42 237.09"/><polygon class="bf" points="267.89 245.8 259.04 249.33 287.08 254.81 314.1 247.6 290.5 241.85 267.89 245.8"/><rect class="bm" x="263.11" y="202.54" width="43.82" height="8.39"/><polygon class="bm" points="300.15 249.33 285.02 249.33 269.88 249.33 259.04 230.13 269.88 210.93 285.02 210.93 300.15 210.93 311 230.13 300.15 249.33"/><polygon class="bn" points="269.88 210.93 259.04 230.13 269.88 249.33 285.02 230.13 269.88 210.93"/><polygon class="bo" points="300.15 210.93 285.02 210.93 269.88 210.93 285.02 230.13 300.15 210.93"/><polygon class="bp" points="269.88 249.33 285.02 249.33 300.15 249.33 285.02 230.13 269.88 249.33"/><polygon class="bn" points="263.11 210.93 269.88 210.93 263.11 202.54 263.11 210.93"/><polygon class="bp" points="306.93 210.93 306.93 202.54 300.15 210.93 306.93 210.93"/><polygon class="bp" points="269.88 210.93 283.95 210.93 276.32 202.54 269.88 210.93"/><polygon class="bn" points="283.95 210.93 300.15 210.93 292.67 202.54 283.95 210.93"/><polygon class="bm" points="276.32 202.54 283.95 210.93 292.67 202.54 276.32 202.54"/><polygon class="bo" points="300.15 210.93 306.93 202.54 292.67 202.54 300.15 210.93"/><polygon class="bo" points="263.11 202.54 269.88 210.93 276.32 202.54 263.11 202.54"/><polygon class="ay" points="279.83 176.56 274.29 180.51 277.57 185.59 282.2 183.22 282.76 188.64 290.67 188.64 289.99 182.6 296.43 181.08 296.88 174.64 290.78 172.38 292.05 166.06 285.02 163.8 283.95 169.22 279.37 166.96 274.97 172.04 279.83 176.56"/><path class="bq" d="M288.89,177.21a3.31,3.31,0,1,1-3.31-3.31A3.31,3.31,0,0,1,288.89,177.21Z"/><polygon class="av" points="288.61 188.64 291.4 192.03 290.3 202.54 282.76 202.54 287.08 192.63 286.4 188.64 288.61 188.64"/><polygon class="av" points="290.3 202.54 303.54 194.86 308.29 183.9 297.44 188.64 290.82 197.56 289.43 201.52 290.3 202.54"/><polygon class="av" points="283.61 200.58 276.92 190.79 269.72 188.19 274.29 198.36 282.76 202.54 283.61 200.58"/><polygon class="z" points="488.04 191.85 458.23 203.44 453.66 215.55 456.7 221.52 469.43 222.92 488.04 191.85"/><polygon class="ab" points="458.23 203.44 458.23 238.37 449.1 242.94 437.75 217.17 458.23 203.44"/><polygon class="ac" points="449.1 242.94 462.56 236.22 466.45 250.77 457.78 254.7 449.1 242.94"/><polygon class="ak" points="99.59 187.9 128.8 193.35 139.33 198.68 145.65 215.82 109.88 212.85 99.59 187.9"/><polygon class="ao" points="133.6 163.01 128.8 193.35 145.65 215.82 150.37 168.36 133.6 163.01"/><polygon class="g" points="133.6 163.01 127.73 145.7 131.46 142.67 139.58 150.99 133.6 163.01"/><polygon class="d" points="133.6 163.01 138.51 152.06 157.46 155.8 150.37 168.36 133.6 163.01"/><polygon class="g" points="138.51 152.06 157.46 155.8 163.71 145.74 153.59 136.37 138.51 152.06"/><polygon class="bl" points="119.86 226.36 145.65 215.85 128.29 214.38 119.86 226.36"/><polygon class="bc" points="457.78 254.7 468.5 254.06 466.45 250.77 457.78 254.7"/><polygon class="bc" points="458.23 238.37 462.56 236.22 465.2 227.75 461.58 222.06 458.23 221.69 458.23 238.37"/><polygon class="br" points="118.78 414.85 184.07 389.55 311.34 419.55 247.06 432 118.78 414.85"/><polygon class="bs" points="283.01 355.74 304.42 357.29 300.83 373.29 280.31 381.04 283.01 355.74"/><polygon class="bt" points="304.42 357.29 312.12 359.28 300.83 373.29 304.42 357.29"/><polygon class="bu" points="171.36 382.85 172.28 402.25 188.14 401.73 184.07 389.55 202.86 368.39 181.3 361.11 171.36 382.85"/><polygon class="bu" points="258.17 380.82 240.42 408.47 245.2 375.83 258.17 380.82"/><polygon class="ar" points="164.34 374.09 177.86 414.85 161.2 414.78 153.46 383.96 164.34 374.09"/><polygon class="bv" points="181.3 361.11 153.46 383.96 144.28 345.55 181.3 361.11"/><polygon class="bs" points="122.72 318.45 111.15 372.92 136.71 361.11 131.69 336.85 122.72 318.45"/><polygon class="bt" points="122.72 318.45 136.71 361.11 140.97 339.27 137.69 329.31 122.72 318.45"/><polygon class="bw" points="181.19 311.98 122.72 318.45 140.97 339.27 153.46 337.21 181.19 311.98"/><polygon class="bs" points="273.7 333.63 276.81 314.46 260.4 326.47 255.85 339.78 273.7 333.63"/><polygon class="aq" points="290.8 345.66 292.37 356.9 280.31 381.04 261.11 362.36 246.3 343.07 273.7 333.63 290.8 345.66"/><polygon class="bv" points="246.3 343.07 243.91 358.11 247.06 380.71 280.31 381.04 246.3 343.07"/><polygon class="bx" points="273.7 333.63 299.62 322.38 290.8 345.66 280.85 350.4 273.7 333.63"/><polygon class="aq" points="247.06 380.71 221.98 356.74 202.86 329.8 246.3 343.07 247.06 380.71"/><polygon class="ar" points="202.86 329.8 190.42 364.95 197.05 375.83 228.33 394.47 247.06 380.71 202.86 329.8"/><polygon class="aq" points="181.19 311.98 202.86 329.8 190.42 364.95 182.94 346.29 181.19 311.98"/><polygon class="ar" points="186.24 344.34 181.19 311.98 144.28 345.55 190.42 364.95 186.24 344.34"/><polygon class="bv" points="247.06 380.71 244.66 412.58 234.5 417.73 228.33 394.47 247.06 380.71"/><polygon class="ar" points="244.66 412.58 258.16 424.86 240.93 426.52 234.5 417.73 244.66 412.58"/></svg>